<svg xmlns="http://www.w3.org/2000/svg" xmlns:osb="http://www.openswatchbook.org/uri/2009/osb" xmlns:svg="http://www.w3.org/2000/svg" xmlns:xlink="http://www.w3.org/1999/xlink" id="svg8" width="256" height="256" version="1.1" viewBox="0 0 256 256"><defs id="defs2"><linearGradient id="linearGradient4579" osb:paint="solid"><stop style="stop-color:#fff;stop-opacity:1" id="stop4577" offset="0"/></linearGradient><linearGradient id="linearGradient4573" osb:paint="solid"><stop style="stop-color:#fff;stop-opacity:0" id="stop4571" offset="0"/></linearGradient><linearGradient id="linearGradient4575" x1="-24" x2="-8" y1="477.267" y2="477.267" gradientUnits="userSpaceOnUse" xlink:href="#linearGradient4573"/><linearGradient id="linearGradient4581" x1="0" x2="4.233" y1="294.883" y2="294.883" gradientTransform="matrix(3.7795276,0,0,3.7795276,0,-637.25295)" gradientUnits="userSpaceOnUse" xlink:href="#linearGradient4573"/></defs><metadata id="metadata5"/><g id="layer1" transform="translate(0,-229.26664)"><rect style="opacity:1;fill:url(#linearGradient4575);fill-opacity:1;stroke:none;stroke-width:2.00000238;stroke-miterlimit:4;stroke-dasharray:none;stroke-opacity:1;paint-order:stroke fill markers" id="rect4487" width="16" height="16" x="-24" y="469.267" ry="0"/><g id="radio-off"><rect id="use4500" width="16" height="16" x="0" y="469.267" ry="0" style="opacity:.25;fill:url(#linearGradient4581);fill-opacity:1;stroke:none;stroke-width:2.00000143;stroke-miterlimit:4;stroke-dasharray:none;stroke-opacity:1;paint-order:stroke fill markers"/><path id="path4489" d="M 8 240 C 3.5817219 240 -2.2091392e-07 243.58172 0 248 C -2.2091392e-07 252.41828 3.5817219 256 8 256 C 12.418278 256 16 252.41828 16 248 C 16 243.58172 12.418278 240 8 240 z M 8 241 A 7 7.0000129 0 0 1 15 248 A 7 7.0000129 0 0 1 8 255 A 7 7.0000129 0 0 1 1 248 A 7 7.0000129 0 0 1 8 241 z" transform="translate(0,229.26664)" style="opacity:1;fill:#fff;fill-opacity:1;stroke:none;stroke-width:1.99999988;stroke-miterlimit:4;stroke-dasharray:none;stroke-opacity:1;paint-order:stroke fill markers"/><ellipse id="path4494" cx="8" cy="477.267" rx="7.5" ry="7.5" style="opacity:.15;fill:#fff;fill-opacity:1;stroke:none;stroke-width:4.28571796;stroke-miterlimit:4;stroke-dasharray:none;stroke-opacity:1;paint-order:stroke fill markers"/></g><g id="radio-on" transform="matrix(3.7795276,0,0,3.7795276,1.5880691e-7,-637.25295)"><rect id="use4502" width="4.233" height="4.233" x="6.35" y="292.767" ry="0" style="opacity:.25;fill:url(#linearGradient4573);fill-opacity:1;stroke:none;stroke-width:.52916706;stroke-miterlimit:4;stroke-dasharray:none;stroke-opacity:1;paint-order:stroke fill markers"/><ellipse style="opacity:.25;fill:#fff;fill-opacity:1;stroke:none;stroke-width:.60476083;stroke-miterlimit:4;stroke-dasharray:none;stroke-opacity:1;paint-order:stroke fill markers" id="ellipse4506" cx="8.467" cy="294.883" rx="1.058" ry="1.058"/><path id="path4521" d="m 32,240 c -4.418278,0 -8,3.58169 -8,8 0,4.41827 3.581722,8 8,8 4.418278,0 8,-3.58173 8,-8 0,-4.41831 -3.581722,-8 -8,-8 z m 0,6 a 1.9999999,1.9999945 0 0 1 2,2 1.9999999,1.9999945 0 0 1 -2,2 1.9999999,1.9999945 0 0 1 -2,-2 1.9999999,1.9999945 0 0 1 2,-2 z" transform="matrix(0.26458333,0,0,0.26458333,0,229.26664)" style="opacity:1;fill:#fff;fill-opacity:1;stroke:none;stroke-width:1.99999988;stroke-miterlimit:4;stroke-dasharray:none;stroke-opacity:1;paint-order:stroke fill markers"/></g><g id="check-off" transform="matrix(3.7795276,0,0,3.7795276,0,-637.25295)"><rect id="use4518" width="4.233" height="4.233" x="0" y="286.417" ry="0" style="opacity:.25;fill:url(#linearGradient4573);fill-opacity:1;stroke:none;stroke-width:.52916706;stroke-miterlimit:4;stroke-dasharray:none;stroke-opacity:1;paint-order:stroke fill markers"/><path id="rect4526" d="m 2,216 c -1.10799994,0 -2,0.892 -2,2 v 12 c 0,1.108 0.89200006,2 2,2 h 12 c 1.108,0 2,-0.892 2,-2 v -12 c 0,-1.108 -0.892,-2 -2,-2 z m -1,1 h 14 v 14 H 1 Z" transform="matrix(0.26458333,0,0,0.26458333,0,229.26664)" style="opacity:1;fill:#fff;fill-opacity:1;stroke:none;stroke-width:1.99999988;stroke-miterlimit:4;stroke-dasharray:none;stroke-opacity:1;paint-order:stroke fill markers"/><rect id="rect4531" width="3.836" height="3.836" x=".198" y="286.615" style="opacity:.15;fill:#fff;fill-opacity:1;stroke:none;stroke-width:.54806548;stroke-miterlimit:4;stroke-dasharray:none;stroke-opacity:1;paint-order:stroke fill markers"/></g><g id="check-on" transform="matrix(3.7795276,0,0,3.7795276,1.5880691e-7,-637.25295)"><rect id="use4514" width="4.233" height="4.233" x="6.35" y="286.417" ry="0" style="opacity:.25;fill:url(#linearGradient4573);fill-opacity:1;stroke:none;stroke-width:.52916706;stroke-miterlimit:4;stroke-dasharray:none;stroke-opacity:1;paint-order:stroke fill markers"/><path id="rect4533" d="m 26,216 c -1.108,0 -2,0.892 -2,2 v 12 c 0,1.108 0.892,2 2,2 h 12 c 1.108,0 2,-0.892 2,-2 v -12 c 0,-1.108 -0.892,-2 -2,-2 z m 9,9 h -2 v 2 h -2 v -2 h -2 v -2 h 2 v -2 h 2 v 2 h 2 z" transform="matrix(0.26458333,0,0,0.26458333,0,229.26664)" style="opacity:1;fill:#fff;fill-opacity:1;stroke:none;stroke-width:1.99999988;stroke-miterlimit:4;stroke-dasharray:none;stroke-opacity:1;paint-order:stroke fill markers"/><rect id="rect4544" width="3.704" height="3.704" x="6.615" y="286.681" style="opacity:.25;fill:#fff;fill-opacity:1;stroke:none;stroke-width:.52916664;stroke-miterlimit:4;stroke-dasharray:none;stroke-opacity:1;paint-order:stroke fill markers"/></g><g id="arrow-up" transform="matrix(3.7795278,0,0,3.7795278,-4.3501574e-6,-637.25301)"><rect id="use4508" width="4.233" height="4.233" x="19.05" y="286.417" ry="0" style="opacity:.25;fill:url(#linearGradient4573);fill-opacity:1;stroke:none;stroke-width:.52916706;stroke-miterlimit:4;stroke-dasharray:none;stroke-opacity:1;paint-order:stroke fill markers"/><path id="rect4655" d="m 80,221 -4.999999,5 h 10 z" transform="matrix(0.26458333,0,0,0.26458333,0,229.26664)" style="opacity:1;fill:#fff;fill-opacity:1;stroke:none;stroke-width:1.99999988;stroke-miterlimit:4;stroke-dasharray:none;stroke-opacity:1;paint-order:stroke fill markers"/></g><g id="arrow-down" transform="matrix(-3.7795278,0,0,-3.7795278,160,1567.7863)"><rect id="use4675" width="4.233" height="4.233" x="19.05" y="286.417" ry="0" style="opacity:.25;fill:url(#linearGradient4573);fill-opacity:1;stroke:none;stroke-width:.52916706;stroke-miterlimit:4;stroke-dasharray:none;stroke-opacity:1;paint-order:stroke fill markers"/><path style="opacity:1;fill:#fff;fill-opacity:1;stroke:none;stroke-width:1.99999988;stroke-miterlimit:4;stroke-dasharray:none;stroke-opacity:1;paint-order:stroke fill markers" id="path4677" d="m 80,221 -4.999999,5 h 10 z" transform="matrix(0.26458333,0,0,0.26458333,0,229.26664)"/></g><g id="arrow-right" transform="matrix(0,3.779529,-3.779529,0,1194.52,373.26661)"><rect id="use4681" width="4.233" height="4.233" x="19.05" y="286.417" ry="0" style="opacity:.25;fill:url(#linearGradient4573);fill-opacity:1;stroke:none;stroke-width:.52916706;stroke-miterlimit:4;stroke-dasharray:none;stroke-opacity:1;paint-order:stroke fill markers"/><path style="opacity:1;fill:#fff;fill-opacity:1;stroke:none;stroke-width:1.99999988;stroke-miterlimit:4;stroke-dasharray:none;stroke-opacity:1;paint-order:stroke fill markers" id="path4683" d="m 80,221 -4.999999,5 h 10 z" transform="matrix(0.26458333,0,0,0.26458333,0,229.26664)"/></g><g id="arrow-left" transform="matrix(0,-3.779529,3.779529,0,-986.52,557.26667)"><rect id="use4687" width="4.233" height="4.233" x="19.05" y="286.417" ry="0" style="opacity:.25;fill:url(#linearGradient4573);fill-opacity:1;stroke:none;stroke-width:.52916706;stroke-miterlimit:4;stroke-dasharray:none;stroke-opacity:1;paint-order:stroke fill markers"/><path style="opacity:1;fill:#fff;fill-opacity:1;stroke:none;stroke-width:1.99999988;stroke-miterlimit:4;stroke-dasharray:none;stroke-opacity:1;paint-order:stroke fill markers" id="path4689" d="m 80,221 -4.999999,5 h 10 z" transform="matrix(0.26458333,0,0,0.26458333,0,229.26664)"/></g><g id="collapse" transform="matrix(3.7795278,0,0,3.7795278,-48.000017,-661.25298)"><rect id="use4524" width="4.233" height="4.233" x="12.7" y="286.417" ry="0" style="opacity:.25;fill:url(#linearGradient4573);fill-opacity:1;stroke:none;stroke-width:.52916706;stroke-miterlimit:4;stroke-dasharray:none;stroke-opacity:1;paint-order:stroke fill markers"/><rect id="rect4529" width=".529" height="2.117" x="288.269" y="-15.875" style="opacity:1;fill:#fff;fill-opacity:1;stroke:none;stroke-width:.52916664;stroke-miterlimit:4;stroke-dasharray:none;stroke-opacity:1;paint-order:stroke fill markers" transform="rotate(90)"/></g><g id="expand" transform="matrix(3.7795278,0,0,3.7795278,-24.000004,-661.25298)"><rect id="use4533" width="4.233" height="4.233" x="12.7" y="286.417" ry="0" style="opacity:.25;fill:url(#linearGradient4573);fill-opacity:1;stroke:none;stroke-width:.52916706;stroke-miterlimit:4;stroke-dasharray:none;stroke-opacity:1;paint-order:stroke fill markers"/><rect style="opacity:1;fill:#fff;fill-opacity:1;stroke:none;stroke-width:.52916664;stroke-miterlimit:4;stroke-dasharray:none;stroke-opacity:1;paint-order:stroke fill markers" id="rect4535" width=".529" height="2.117" x="14.552" y="287.475"/><rect id="rect4537" width=".529" height="2.117" x="288.269" y="-15.875" style="opacity:1;fill:#fff;fill-opacity:1;stroke:none;stroke-width:.52916664;stroke-miterlimit:4;stroke-dasharray:none;stroke-opacity:1;paint-order:stroke fill markers" transform="rotate(90)"/></g><g id="tree-node-button-close" transform="matrix(3.7795276,0,0,3.7795276,24,-661.25295)"><rect id="use4541" width="4.233" height="4.233" x="6.35" y="286.417" ry="0" style="opacity:.25;fill:url(#linearGradient4573);fill-opacity:1;stroke:none;stroke-width:.52916706;stroke-miterlimit:4;stroke-dasharray:none;stroke-opacity:1;paint-order:stroke fill markers"/><path style="opacity:1;fill:#fff;fill-opacity:1;stroke:none;stroke-width:1.99999988;stroke-miterlimit:4;stroke-dasharray:none;stroke-opacity:1;paint-order:stroke fill markers" id="path4543" d="m 26,216 c -1.108,0 -2,0.892 -2,2 v 12 c 0,1.108 0.892,2 2,2 h 12 c 1.108,0 2,-0.892 2,-2 v -12 c 0,-1.108 -0.892,-2 -2,-2 z m 12,9 H 26 v -2 h 12 z" transform="matrix(0.26458333,0,0,0.26458333,0,229.26664)"/></g><g id="tree-node-button-open" transform="matrix(3.7795276,0,0,3.7795276,48,-661.25295)"><rect id="use4549" width="4.233" height="4.233" x="6.35" y="286.417" ry="0" style="opacity:.25;fill:url(#linearGradient4573);fill-opacity:1;stroke:none;stroke-width:.52916706;stroke-miterlimit:4;stroke-dasharray:none;stroke-opacity:1;paint-order:stroke fill markers"/><path style="opacity:1;fill:#fff;fill-opacity:1;stroke:none;stroke-width:1.99999988;stroke-miterlimit:4;stroke-dasharray:none;stroke-opacity:1;paint-order:stroke fill markers" id="path4551" d="m 26,216 c -1.108,0 -2,0.892 -2,2 v 12 c 0,1.108 0.892,2 2,2 h 12 c 1.108,0 2,-0.892 2,-2 v -12 c 0,-1.108 -0.892,-2 -2,-2 z m 12,9 h -5 v 5 h -2 v -5 h -5 v -2 h 5 v -5 h 2 v 5 h 5 z" transform="matrix(0.26458333,0,0,0.26458333,0,229.26664)"/></g><g id="close" transform="matrix(3.7795278,0,0,3.7795278,-2.8201574e-6,-637.253)"><rect id="use4510" width="4.233" height="4.233" x="12.7" y="286.417" ry="0" style="opacity:.25;fill:url(#linearGradient4573);fill-opacity:1;stroke:none;stroke-width:.52916706;stroke-miterlimit:4;stroke-dasharray:none;stroke-opacity:1;paint-order:stroke fill markers"/><rect id="rect4646" width=".529" height="3.175" x="-193.811" y="212.913" transform="rotate(-45)" style="opacity:1;fill:#fff;fill-opacity:1;stroke:none;stroke-width:.52916664;stroke-miterlimit:4;stroke-dasharray:none;stroke-opacity:1;paint-order:stroke fill markers"/><rect transform="rotate(45)" style="opacity:1;fill:#fff;fill-opacity:1;stroke:none;stroke-width:.52916664;stroke-miterlimit:4;stroke-dasharray:none;stroke-opacity:1;paint-order:stroke fill markers" id="rect4648" width=".529" height="3.175" x="214.236" y="191.959"/></g><g id="multichoice-arrow" transform="matrix(3.7795278,0,0,3.7795278,-2.2136603e-5,-637.25301)"><rect id="use4693" width="4.233" height="4.233" x="-16.933" y="-297" ry="0" style="opacity:.25;fill:url(#linearGradient4573);fill-opacity:1;stroke:none;stroke-width:.52916706;stroke-miterlimit:4;stroke-dasharray:none;stroke-opacity:1;paint-order:stroke fill markers" transform="scale(-1)"/><rect id="rect4579" width=".529" height="2.117" x="219.21" y="196.669" transform="rotate(45)" style="opacity:1;fill:#fff;fill-opacity:1;stroke:none;stroke-width:.52916664;stroke-miterlimit:4;stroke-dasharray:none;stroke-opacity:1;paint-order:stroke fill markers"/><rect style="opacity:1;fill:#fff;fill-opacity:1;stroke:none;stroke-width:.52916664;stroke-miterlimit:4;stroke-dasharray:none;stroke-opacity:1;paint-order:stroke fill markers" id="rect4583" width=".529" height="2.117" x="198.256" y="217.623" transform="matrix(-0.70710678,0.70710678,0.70710678,0.70710678,0,0)"/></g><g id="slider" transform="matrix(3.7795278,0,0,3.7795278,-5.7011931e-6,-637.25301)"><rect id="use4590" width="4.233" height="4.233" x="25.4" y="280.067" ry="0" style="opacity:.25;fill:url(#linearGradient4573);fill-opacity:1;stroke:none;stroke-width:.52916706;stroke-miterlimit:4;stroke-dasharray:none;stroke-opacity:1;paint-order:stroke fill markers"/><path style="opacity:1;fill:#fff;fill-opacity:1;stroke:none;stroke-width:.52916664;stroke-miterlimit:4;stroke-dasharray:none;stroke-opacity:1;paint-order:stroke fill markers" id="path4592" d="M 27.516667,280.06664 A 2.1166665,2.1166665 0 0 0 25.4,282.18331 a 2.1166665,2.1166665 0 0 0 2.116667,2.11666 2.1166665,2.1166665 0 0 0 2.116666,-2.11666 2.1166665,2.1166665 0 0 0 -2.116666,-2.11667 z m 0,0.52917 a 1.5875,1.5874941 0 0 1 1.5875,1.5875 1.5875,1.5874941 0 0 1 -1.5875,1.5875 1.5875,1.5874941 0 0 1 -1.5875,-1.5875 1.5875,1.5874941 0 0 1 1.5875,-1.5875 z"/><ellipse id="path4635" cx="27.517" cy="282.183" rx="1.852" ry="1.852" style="opacity:.35;fill:#fff;fill-opacity:1;stroke:none;stroke-width:.4630211;stroke-miterlimit:4;stroke-dasharray:none;stroke-opacity:1;paint-order:stroke fill markers"/><ellipse style="opacity:1;fill:#fff;fill-opacity:1;stroke:none;stroke-width:.19843718;stroke-miterlimit:4;stroke-dasharray:none;stroke-opacity:1;paint-order:stroke fill markers" id="ellipse4645" cx="27.517" cy="282.183" rx=".794" ry=".794"/></g></g></svg>